name analog
datacolumns 19
datarows 37
range 0.1695 0.1875
endheader
time	ground_force_vx	ground_force_vy	ground_force_vz	ground_force_px	ground_force_py	ground_force_pz	l_ground_force_vx	l_ground_force_vy	l_ground_force_vz	l_ground_force_px	l_ground_force_py	l_ground_force_pz	ground_torque_x	ground_torque_y	ground_torque_z	l_ground_torque_x	l_ground_torque_y	l_ground_torque_z
0.1695	-0.0	-0.0	-0.0	-5.417957305908203	9.545724868774414	-108.3914794921875	7.830293655395508	-10.60730266571045	-393.9118041992188	-0.0	-0.0	-0.0	-0.0	-0.0	-0.0	116198.6640625	5477.6748046875	2160.409423828125
0.17	-0.0	-0.0	-0.0	-5.798683166503906	9.302249908447266	-105.50667572021484	7.634964466094971	-10.760573387145996	-395.8449401855469	-0.0	-0.0	-0.0	-0.0	-0.0	-0.0	116597.984375	5510.03759765625	1987.2113037109373
0.1705	-0.0	-0.0	-0.0	-6.057210445404053	9.194981575012209	-104.82235717773438	7.297813892364502	-10.542728424072266	-397.6480407714844	-0.0	-0.0	-0.0	-0.0	-0.0	-0.0	117421.0703125	5550.09521484375	1893.142822265625
0.171	-0.0	-0.0	-0.0	-6.249575138092041	9.114791870117188	-103.2585906982422	7.1529059410095215	-10.1011962890625	-400.0357666015625	-0.0	-0.0	-0.0	-0.0	-0.0	-0.0	117686.5078125	5738.728515625	1769.8382568359375
0.1715	-0.0	-0.0	-0.0	-6.456069469451904	8.814390182495117	-102.42218017578124	7.143359661102295	-10.30104923248291	-400.0904541015625	-0.0	-0.0	-0.0	-0.0	-0.0	-0.0	118058.953125	5882.3662109375	1693.3140869140625
0.17200000000000001	-0.0	-0.0	-0.0	-6.849828243255615	8.748353004455566	-101.50857543945312	6.686093807220459	-10.519883155822754	-401.9645690917969	-0.0	-0.0	-0.0	-0.0	-0.0	-0.0	118749.8203125	5955.17578125	1770.9625244140625
0.17250000000000001	-0.0	-0.0	-0.0	-6.601577758789063	8.209911346435547	-100.74781799316406	6.765006065368652	-10.500448226928713	-403.5415344238281	-0.0	-0.0	-0.0	-0.0	-0.0	-0.0	118947.859375	5966.314453125	1725.960693359375
0.17300000000000001	-0.0	-0.0	-0.0	-6.387281894683838	8.222970962524414	-98.94137573242188	7.129788398742676	-10.424675941467283	-403.4104614257813	-0.0	-0.0	-0.0	-0.0	-0.0	-0.0	119198.078125	6059.65625	1733.947021484375
0.17350000000000002	-0.0	-0.0	-0.0	-6.379624843597412	8.11086654663086	-97.78987884521484	7.274284362792969	-10.610957145690918	-405.3161926269531	-0.0	-0.0	-0.0	-0.0	-0.0	-0.0	119400.3515625	5885.42578125	1778.87744140625
0.17400000000000002	-0.0	-0.0	-0.0	-5.943864345550537	8.166787147521973	-97.07608795166016	7.218629837036133	-10.832331657409668	-404.7556762695313	-0.0	-0.0	-0.0	-0.0	-0.0	-0.0	119544.2734375	5890.30810546875	1919.4913330078125
0.17450000000000002	-0.0	-0.0	-0.0	-5.809353828430176	7.8328142166137695	-95.84356689453124	7.441086769104004	-10.323064804077148	-405.4068298339844	-0.0	-0.0	-0.0	-0.0	-0.0	-0.0	119401.3125	5764.6826171875	1926.8629150390625
0.17500000000000002	-0.0	-0.0	-0.0	-6.1221537590026855	7.876816749572754	-96.06494140625	8.250102996826172	-10.609405517578123	-404.666748046875	-0.0	-0.0	-0.0	-0.0	-0.0	-0.0	119507.28125	5474.74267578125	2049.99169921875
0.17550000000000002	-0.0	-0.0	-0.0	-5.597921848297119	8.266958236694336	-95.13777160644533	8.183602333068848	-10.466055870056152	-404.7101745605469	-0.0	-0.0	-0.0	-0.0	-0.0	-0.0	119392.09375	5652.6669921875	2116.735107421875
0.176	-0.0	-0.0	-0.0	-5.1516947746276855	7.81001615524292	-94.8293685913086	8.560742378234863	-10.27847385406494	-404.1864929199219	-0.0	-0.0	-0.0	-0.0	-0.0	-0.0	119274.140625	5382.49169921875	2239.417236328125
0.1765	-0.0	-0.0	-0.0	-5.753626346588135	8.267069816589355	-95.802734375	8.881592750549316	-9.815091133117676	-403.8370361328125	-0.0	-0.0	-0.0	-0.0	-0.0	-0.0	119264.7109375	5313.1376953125	2295.29345703125
0.177	-0.0	-0.0	-0.0	-5.731440544128418	8.499641418457031	-96.01880645751952	9.182243347167969	-9.638608932495115	-404.5351257324219	-0.0	-0.0	-0.0	-0.0	-0.0	-0.0	119239.203125	5264.26953125	2455.4697265625
0.1775	-0.0	-0.0	-0.0	-5.374443531036377	8.455513000488281	-98.09766387939452	9.592592239379885	-9.495561599731444	-404.0072326660156	-0.0	-0.0	-0.0	-0.0	-0.0	-0.0	119198.75	4952.0126953125	2388.73974609375
0.178	-0.0	-0.0	-0.0	-5.598577499389648	8.833508491516113	-99.76844024658205	9.84689712524414	-9.152026176452637	-404.5345764160156	-0.0	-0.0	-0.0	-0.0	-0.0	-0.0	119392.6640625	4996.02392578125	2448.357421875
0.1785	-0.0	-0.0	-0.0	-5.28499698638916	8.913040161132812	-99.99837493896484	10.088669776916504	-8.536617279052734	-405.015869140625	-0.0	-0.0	-0.0	-0.0	-0.0	-0.0	119458.921875	4929.3603515625	2478.36767578125
0.179	-0.0	-0.0	-0.0	-5.586368083953857	9.358692169189451	-99.78030395507812	10.476758003234863	-8.697931289672852	-403.05364990234375	-0.0	-0.0	-0.0	-0.0	-0.0	-0.0	119195.7734375	4839.8544921875	2618.6484375
0.1795	-0.0	-0.0	-0.0	-5.488462448120117	9.660011291503906	-100.8750228881836	10.75517463684082	-8.445259094238281	-403.436767578125	-0.0	-0.0	-0.0	-0.0	-0.0	-0.0	119116.296875	4514.4111328125	2775.55224609375
0.18	-0.0	-0.0	-0.0	-5.633088111877441	10.092902183532717	-100.05147552490234	11.224145889282228	-8.655525207519531	-401.308349609375	-0.0	-0.0	-0.0	-0.0	-0.0	-0.0	118802.6875	4431.79150390625	2883.19580078125
0.1805	-0.0	-0.0	-0.0	-5.798683166503906	10.695648193359377	-102.33892059326172	11.621112823486328	-8.4996976852417	-402.0580749511719	-0.0	-0.0	-0.0	-0.0	-0.0	-0.0	118612.1171875	4118.71044921875	3098.157470703125
0.181	-0.0	-0.0	-0.0	-5.331707954406738	11.09397792816162	-103.04570770263672	11.955156326293944	-8.32294750213623	-399.9640197753906	-0.0	-0.0	-0.0	-0.0	-0.0	-0.0	118494.0078125	3962.133056640625	3159.57470703125
0.1815	-0.0	-0.0	-0.0	-5.489515781402588	11.353751182556152	-102.3689193725586	12.419509887695312	-8.057828903198242	-400.3956298828125	-0.0	-0.0	-0.0	-0.0	-0.0	-0.0	118423.5390625	3920.96923828125	3265.354248046875
0.182	-0.0	-0.0	-0.0	-5.2014994621276855	11.909219741821287	-103.91661071777344	12.624391555786133	-8.227434158325195	-401.17523193359375	-0.0	-0.0	-0.0	-0.0	-0.0	-0.0	118636.7890625	3798.01953125	3354.38525390625
0.1825	-0.0	-0.0	-0.0	-5.277227401733398	12.101221084594728	-104.10679626464844	12.794764518737791	-8.349916458129883	-400.4769287109375	-0.0	-0.0	-0.0	-0.0	-0.0	-0.0	118714.2265625	3623.87841796875	3375.028564453125
0.183	-0.0	-0.0	-0.0	-5.352630615234375	12.936572074890137	-104.0267333984375	12.951774597167969	-8.111686706542969	-400.9360046386719	-0.0	-0.0	-0.0	-0.0	-0.0	-0.0	118721.4140625	3409.19921875	3518.95263671875
0.1835	-0.0	-0.0	-0.0	-5.1337103843688965	12.83477783203125	-104.26824951171876	13.41545867919922	-8.153790473937988	-401.23095703125	-0.0	-0.0	-0.0	-0.0	-0.0	-0.0	118540.7890625	3425.794921875	3674.344482421875
0.184	-0.0	-0.0	-0.0	-5.010181903839111	13.205679893493652	-106.38689422607422	13.89324951171875	-8.621332168579102	-402.0874938964844	-0.0	-0.0	-0.0	-0.0	-0.0	-0.0	118820.5	3187.866455078125	3763.539794921875
0.1845	-0.0	-0.0	-0.0	-5.139597415924072	13.938923835754396	-107.58285522460938	14.222829818725586	-8.772823333740234	-402.0662536621094	-0.0	-0.0	-0.0	-0.0	-0.0	-0.0	118813.671875	2911.58642578125	3804.884033203125
0.185	-0.0	-0.0	-0.0	-4.956071376800537	14.46400260925293	-109.24992370605467	14.642278671264648	-9.317811012268066	-402.0869445800781	-0.0	-0.0	-0.0	-0.0	-0.0	-0.0	118920.578125	3090.05029296875	4019.293701171875
0.1855	-0.0	-0.0	-0.0	-5.065295219421387	14.547941207885742	-109.28861236572266	14.44027042388916	-9.416010856628418	-402.4947204589844	-0.0	-0.0	-0.0	-0.0	-0.0	-0.0	119161.09375	2901.239501953125	3951.65283203125
0.186	-0.0	-0.0	-0.0	-4.8869829177856445	14.83042335510254	-108.48646545410156	14.085535049438477	-9.573205947875977	-402.8443298339844	-0.0	-0.0	-0.0	-0.0	-0.0	-0.0	119382.65625	2790.95166015625	3857.397216796875
0.1865	-0.0	-0.0	-0.0	-5.391605377197266	15.632650375366213	-109.40863037109376	14.03159999847412	-9.719443321228027	-402.6320190429688	-0.0	-0.0	-0.0	-0.0	-0.0	-0.0	119459.65625	2843.30908203125	3786.4365234375
0.187	-0.0	-0.0	-0.0	-5.298358917236328	15.470059394836426	-109.42399597167967	13.661460876464844	-9.554201126098633	-404.029541015625	-0.0	-0.0	-0.0	-0.0	-0.0	-0.0	119594.8125	2833.480224609375	3577.3583984375
0.1875	-0.0	-0.0	-0.0	-5.158411502838135	15.43874740600586	-108.71687316894533	13.236998558044434	-9.166447639465332	-405.3650512695313	-0.0	-0.0	-0.0	-0.0	-0.0	-0.0	119901.8046875	2742.077392578125	3495.802734375
